<svg xmlns="http://www.w3.org/2000/svg" xmlns:xlink="http://www.w3.org/1999/xlink"><symbol id="all-inclusive-icon" viewBox="0 0 38 21"><path d="M28.753 2.215L26.44 0 16.073 9.933l2.314 2.215 10.366-9.933zM35.694 0L18.38 16.57l-6.819-6.528-2.313 2.215L18.379 21 38 2.215 35.694 0zM0 12.257L9.132 21l2.314-2.215-9.132-8.743L0 12.257z" fill="#011C40"/></symbol><symbol id="external-fb" viewBox="0 0 11 20"><path d="M7.31 11.5h2.611l1.045-4H7.31v-2c0-1.03 0-2 2.089-2h1.567V.14C10.626.097 9.338 0 7.982 0 5.146 0 3.133 1.657 3.133 4.7v2.8H0v4h3.133V20H7.31v-8.5z" fill="#F9FBFD"/></symbol><symbol id="external-instagram" viewBox="0 0 21 20"><path d="M10.736 0c2.648 0 2.978.01 4.017.06 1.038.05 1.745.217 2.367.465a4.741 4.741 0 011.727 1.153c.496.5.88 1.105 1.124 1.772.24.637.405 1.363.453 2.428.046 1.066.059 1.405.059 4.122 0 2.717-.01 3.056-.059 4.122-.048 1.065-.212 1.79-.453 2.428a4.897 4.897 0 01-1.124 1.772 4.78 4.78 0 01-1.727 1.153c-.62.247-1.329.415-2.367.465-1.039.047-1.37.06-4.017.06-2.649 0-2.98-.01-4.018-.06-1.038-.05-1.745-.218-2.367-.465a4.757 4.757 0 01-1.727-1.153A4.918 4.918 0 011.5 16.55c-.241-.637-.404-1.363-.453-2.428C1.001 13.056.989 12.717.989 10c0-2.717.01-3.056.058-4.122.049-1.066.212-1.79.453-2.428a4.894 4.894 0 011.124-1.772A4.763 4.763 0 014.351.525C4.973.277 5.68.11 6.718.06 7.757.013 8.088 0 10.736 0zm0 5A4.812 4.812 0 007.29 6.464 5.067 5.067 0 005.862 10c0 1.326.514 2.598 1.428 3.536A4.812 4.812 0 0010.736 15a4.812 4.812 0 003.446-1.464A5.066 5.066 0 0015.609 10a5.066 5.066 0 00-1.427-3.536A4.812 4.812 0 0010.736 5zm6.335-.25c0-.332-.128-.65-.357-.884a1.203 1.203 0 00-.861-.366c-.323 0-.633.132-.862.366a1.267 1.267 0 00-.357.884c0 .332.129.65.357.884.229.234.539.366.862.366.323 0 .633-.132.861-.366.229-.235.357-.552.357-.884zM10.736 7c.775 0 1.519.316 2.067.879A3.04 3.04 0 0113.66 10a3.04 3.04 0 01-.857 2.121 2.887 2.887 0 01-2.067.879c-.776 0-1.52-.316-2.068-.879A3.04 3.04 0 017.812 10c0-.796.308-1.559.856-2.121A2.887 2.887 0 0110.736 7z" fill="#F9FBFD"/></symbol><symbol id="external-twitter" viewBox="0 0 20 17"><path d="M19.999 2.429a7.863 7.863 0 01-2.297.645 4.098 4.098 0 001.76-2.269 7.875 7.875 0 01-2.54.996 3.97 3.97 0 00-2.27-1.246 3.914 3.914 0 00-2.54.43 4.062 4.062 0 00-1.758 1.928 4.196 4.196 0 00-.247 2.627A11.137 11.137 0 015.54 4.297a11.414 11.414 0 01-3.677-3.042 4.166 4.166 0 00-.542 2.062c0 1.422.706 2.678 1.78 3.413a3.911 3.911 0 01-1.812-.512v.05c0 .947.32 1.865.905 2.598a3.987 3.987 0 002.304 1.424 3.93 3.93 0 01-1.808.07A4.102 4.102 0 004.113 12.4c.67.51 1.479.794 2.313.81a7.956 7.956 0 01-2.795 1.453 7.837 7.837 0 01-3.125.245 11.112 11.112 0 006.13 1.843c7.357 0 11.38-6.249 11.38-11.668 0-.176-.004-.355-.012-.53A8.242 8.242 0 0020 2.43l-.001-.001z" fill="#F9FBFD"/></symbol><symbol id="liner-icon" viewBox="0 0 27 32"><path d="M4.405 16.396l8.811-6.46a.6.6 0 01.655 0l8.854 6.46V8.688c.049-1.057-.75-1.954-1.785-2.003l-.047-.002H6.237c-1.035.024-1.856.9-1.833 1.958l.001.047v7.708zM15.746 0h-4.362v5.347h4.362V0z" fill="#011C40"/><path d="M24.296 30.164L27 21.03l-3.795-2.718-.262-.134-8.941-6.37v18.801h-.48l-.83-.044V11.807L0 21.03l2.792 9.09 1.612 1.87h2.754s5.089.007 6.364 0c1.298.022 3.603 0 3.603 0h5.688l1.483-1.826z" fill="#011C40"/></symbol><symbol id="location-icon"><path d="M15.364 15.556L9 22l-6.364-6.444a9.149 9.149 0 01-2.463-4.665 9.219 9.219 0 01.512-5.266A9.09 9.09 0 014 1.535 8.921 8.921 0 019 0c1.78 0 3.52.534 5 1.536a9.089 9.089 0 013.315 4.09 9.22 9.22 0 01.512 5.264 9.149 9.149 0 01-2.463 4.666zM9 11.138c.53 0 1.04-.214 1.414-.594a2.038 2.038 0 000-2.864A1.988 1.988 0 009 7.089c-.53 0-1.04.213-1.414.593C7.21 8.06 7 8.576 7 9.113c0 .537.21 1.052.586 1.431.375.38.884.594 1.414.594z" fill="#011C40"/></symbol><symbol id="logo" viewBox="0 0 70 38"><path fill-rule="evenodd" clip-rule="evenodd" d="M.904 31.125l13.769-18.582 3.766 2.013L27.404 0l5.585 6.659 2.078-1.704 8.054 10.22 5.716-6.813 15.977 22.763L49.42 11.769l-2.338 8.13 2.143 6.426-13.769-18.97-.15 6.473 7.814 17.297-14.614-26.79 4.222 14.48-5.91-14.092-3.247 9.369.649-6.117L16.1 30.04l.974-9.291-3.377-3.716L.904 31.125z"/><path fill-rule="evenodd" clip-rule="evenodd" d="M69.441 34.031C47.641 16.428 13.71 40.63 0 31.296c15.072 13.226 50.302-9.132 69.441 2.735z"/><path fill-rule="evenodd" clip-rule="evenodd" d="M70 35.416c-17.104-10.899-42.543 4.268-55.581.756 14.128 6.856 40.43-8.336 55.581-.756z"/></symbol><symbol id="personal-data-icon" viewBox="0 0 12 8"><path d="M1 2.5L5.286 7 11 1" stroke="#101A56"/></symbol><symbol id="phone-icon"><path d="M18 13.42v3.536a1 1 0 01-.93.998c-.437.03-.794.046-1.07.046C7.163 18 0 10.837 0 2c0-.276.015-.633.046-1.07A1 1 0 011.044 0H4.58a.5.5 0 01.498.45c.023.23.044.413.064.552A13.9 13.9 0 006.35 5.003c.095.2.033.439-.147.567L4.045 7.112a13.047 13.047 0 006.844 6.844l1.54-2.154a.462.462 0 01.573-.149 13.9 13.9 0 004 1.205c.139.02.322.042.55.064a.5.5 0 01.449.498H18z" fill="#011C40"/></symbol><symbol id="toggle-close-menu"><path d="M1 1l6.5 6.5M14 14L7.5 7.5m0 0L14 1 1 14" stroke="#011C40" stroke-width="2"/></symbol><symbol id="toggle-open-menu"><path d="M0 1h24M0 7h24M0 13h24" stroke="#F9FBFD" stroke-width="2"/></symbol><symbol id="tour-icon" viewBox="0 0 42 15"><path d="M39.555 12.056L1.573 8.068c-.292-.03-.489.265-.338.5C3.663 12.34 9.41 15 16.1 15h22.658c.154 0 .29-.093.335-.23l.757-2.294c.065-.195-.077-.397-.295-.42zM41.89 5.518a.707.707 0 00-.497-.295l-10.5-1.305c-.378-.046-.735.204-.787.56-.051.357.219.686.602.734l1.188.147c.174.022.304.16.304.323V6.69c0 .194-.18.345-.387.324l-2.8-.28a.335.335 0 01-.313-.323V3.556c0-.064.02-.127.059-.18l1.224-1.71a.614.614 0 00.042-.656.706.706 0 00-.592-.358L14.733 0a.746.746 0 00-.603.273s-2.797 3.662-3.41 4.469a.359.359 0 01-.323.134l-9.623-.96a.735.735 0 00-.542.164.636.636 0 00-.232.485c0 .628.088 1.244.253 1.841a.35.35 0 00.304.243l39.548 4.152a.351.351 0 00.374-.228l1.49-4.512a.617.617 0 00-.08-.543zM20.2 1.905l-.545 3.562a.342.342 0 01-.378.279c-1.366-.129-6.497-.631-6.497-.631-.266-.027-.403-.31-.248-.514l2.405-3.137a.36.36 0 01.301-.136l4.633.205c.206.01.359.182.33.372zm7.59.476l-.431.6a.31.31 0 00-.059.18v3.04c0 .195-.18.346-.387.325l-5.555-.554c-.197-.02-.338-.188-.31-.37l.567-3.694c.025-.167.182-.288.363-.28l5.537.246c.272.012.426.295.274.507zM36.4 7.11c0 .193-.18.345-.387.324 0 0-1.453-.153-2.104-.224a.334.334 0 01-.309-.324v-.943c0-.197.186-.35.396-.324l2.1.261c.174.022.304.16.304.324v.906zm3.866-.328l-.26.786a.351.351 0 01-.371.228l-1.523-.152a.336.336 0 01-.312-.324v-.855c0-.197.186-.35.396-.323l1.782.22c.214.028.352.227.288.42z" fill="#011C40"/></symbol></svg>